# xmcd
# 
# Track frame offsets:
#     150
#     3420
#     22230
#     41890
#     45020
#     63192
#     82100
#     102097
#     106877
#     122702
#     144585
#     151297
#     169555
#     183640
# 
# Disc length: 2503
# 
# Revision: 4
# Processed by: cddbd v1.5.2PL0 Copyright (c) Steve Scherf et al.
# Submitted via: fre:ac v1.0.31
# 
DISCID=b009c50e
DTITLE=Soul Choc - Nouveau Syndrome
DYEAR=1996
DGENRE=Rap
TTITLE0=Initiation.
TTITLE1=Soul Choc Fil Blaça.
TTITLE2=Nouveau Syndrome.
TTITLE3=Incubation.
TTITLE4=Des Filles Morales Pour Des Dégâts Moreaux
TTITLE5=La Ville De Lucky Luke.
TTITLE6=Flex Flow.
TTITLE7=Smooth R.A.C.
TTITLE8=Nouveau Syndrome Actte II.
TTITLE9=Arabesk Wad.
TTITLE10=Symptonie.
TTITLE11=Fertile Thérapie.Odd Wild Loop.
TTITLE12=Zulu.
TTITLE13=Outro-tombe.
EXTD=
EXTT0=
EXTT1=
EXTT2=
EXTT3=
EXTT4=
EXTT5=
EXTT6=
EXTT7=
EXTT8=
EXTT9=
EXTT10=
EXTT11=
EXTT12=
EXTT13=
PLAYORDER=
